<svg id="Слой_1" data-name="Слой 1" xmlns="http://www.w3.org/2000/svg" viewBox="0 0 1000 1000"><defs><style>.cls-1,.cls-3{fill:#e8f2ff;}.cls-1,.cls-2,.cls-3,.cls-4,.cls-5,.cls-6{stroke:#2589ff;stroke-miterlimit:10;}.cls-1,.cls-4,.cls-5{stroke-width:10px;}.cls-2,.cls-4{fill:#fff;}.cls-2{stroke-width:5px;}.cls-3{stroke-width:15px;}.cls-5,.cls-6{fill:none;}.cls-6{stroke-width:20px;}</style></defs><circle class="cls-1" cx="515.33" cy="435.38" r="37.05"/><polyline class="cls-2" points="515.34 417.94 515.34 435.38 531.85 435.38"/><path class="cls-3" d="M489.48,212.54h51.71A32.77,32.77,0,0,1,574,245.31v16.22a0,0,0,0,1,0,0H456.71a0,0,0,0,1,0,0V245.31A32.77,32.77,0,0,1,489.48,212.54Z"/><line class="cls-4" x1="464.97" y1="609.23" x2="582.22" y2="609.23"/><line class="cls-4" x1="464.97" y1="631.21" x2="582.22" y2="631.21"/><line class="cls-4" x1="464.97" y1="653.19" x2="582.22" y2="653.19"/><path class="cls-4" d="M501.79,214.3q.06-25.06,0-50.13-.06-31.09-.3-62.19"/><path class="cls-5" d="M501.82,102a45.33,45.33,0,0,1,90.45-4.31,4,4,0,0,1-4,4.31H565.87a2.57,2.57,0,0,1-2.57-2.57V94.08a6.52,6.52,0,0,0-6.53-6.52H537.24a9,9,0,0,0-9,9V132.2"/><path class="cls-4" d="M528.47,212q0-18.56,0-37.09-.06-23-.23-46"/><rect class="cls-1" x="440.1" y="777.11" width="27.65" height="148.75" rx="10.94"/><rect class="cls-1" x="568.39" y="777.11" width="27.65" height="148.75" rx="10.94"/><rect class="cls-6" x="374.27" y="273.17" width="282.62" height="503.93" rx="20.91"/></svg>