<svg id="Слой_1" data-name="Слой 1" xmlns="http://www.w3.org/2000/svg" viewBox="0 0 1000 1000"><defs><style>.cls-1,.cls-2,.cls-5{fill:none;}.cls-1,.cls-2,.cls-3,.cls-4,.cls-5{stroke:#2589ff;stroke-miterlimit:10;}.cls-1{stroke-width:20px;}.cls-2{stroke-width:10px;}.cls-3,.cls-4{fill:#e8f2ff;}.cls-3,.cls-5{stroke-width:15px;}.cls-4{stroke-width:5px;}</style></defs><rect class="cls-1" x="251.98" y="189.17" width="499.4" height="658.72" rx="37.15"/><rect class="cls-2" x="282.62" y="215.13" width="275.74" height="542.3" rx="37.15"/><rect class="cls-3" x="250.31" y="786.45" width="499.39" height="74.3" rx="37.15"/><circle class="cls-4" cx="512.4" cy="482.79" r="10.72"/><path class="cls-5" d="M712.55,786.45c0-59.29-.23-82-.23-141.28V326.35"/><path class="cls-5" d="M611.21,328.57a50.56,50.56,0,1,1,101.11,0"/><path class="cls-4" d="M638.35,354.28c0-.26,0-.52,0-.79,0-13.11-12.15-23.74-27.15-23.74s-27.15,10.63-27.15,23.74c0,.22,0,.43,0,.64Z"/></svg>