<svg id="Слой_1" data-name="Слой 1" xmlns="http://www.w3.org/2000/svg" viewBox="0 0 1000 1000"><defs><style>.cls-1,.cls-4{fill:none;}.cls-1,.cls-2,.cls-3,.cls-4,.cls-5{stroke:#2589ff;stroke-miterlimit:10;}.cls-1{stroke-width:20px;}.cls-2,.cls-5{fill:#e8f2ff;}.cls-2{stroke-width:15px;}.cls-3,.cls-7{fill:#fff;}.cls-3,.cls-4{stroke-width:10px;}.cls-5{stroke-width:5px;}.cls-6{fill:#2589ff;}</style></defs><rect class="cls-1" x="272.02" y="365.69" width="473.5" height="149" rx="20.91"/><path class="cls-2" d="M459.54,306.43h76.29A32.77,32.77,0,0,1,568.6,339.2v26.49a0,0,0,0,1,0,0H426.77a0,0,0,0,1,0,0V339.2A32.77,32.77,0,0,1,459.54,306.43Z"/><path class="cls-3" d="M481.31,308.56q.06-30.33,0-60.64-.09-37.6-.37-75.23"/><path class="cls-4" d="M481.34,172.69a54.83,54.83,0,0,1,109.41-5.2,4.79,4.79,0,0,1-4.79,5.2H558.82a3.12,3.12,0,0,1-3.12-3.11v-6.44a7.89,7.89,0,0,0-7.89-7.89H524.18a10.89,10.89,0,0,0-10.89,10.89v43.11"/><path class="cls-3" d="M513.57,305.82q0-22.44,0-44.86-.06-27.82-.28-55.66"/><rect class="cls-1" x="431.97" y="514.69" width="131.43" height="308.02" rx="20.91"/><rect class="cls-5" x="408.5" y="286.93" width="27.57" height="37.79" rx="3.83" transform="translate(-71.75 472.49) rotate(-54.55)"/><rect class="cls-5" x="561.44" y="287.54" width="27.57" height="37.79" rx="3.83" transform="translate(723.02 941.21) rotate(-131.15)"/><rect class="cls-6" x="667.79" y="543.86" width="20.03" height="177.22" rx="3.62"/><rect class="cls-6" x="648.11" y="711.78" width="59.39" height="35.7" rx="4.34"/><circle class="cls-6" cx="677.81" cy="780.65" r="48.49"/><rect class="cls-6" x="628.17" y="556.3" width="53.26" height="24.04" rx="4.34"/><rect class="cls-6" x="628.17" y="600.19" width="53.26" height="24.04" rx="4.34"/><rect class="cls-6" x="633.5" y="579.69" width="53.26" height="24.04" rx="4.34" transform="translate(1251.84 -68.43) rotate(90)"/><circle class="cls-7" cx="677.81" cy="780.65" r="15.76"/></svg>