<svg id="Слой_1" data-name="Слой 1" xmlns="http://www.w3.org/2000/svg" viewBox="0 0 1000 1000"><defs><style>.cls-1{fill:none;}.cls-1,.cls-2,.cls-3{stroke:#2589ff;stroke-miterlimit:10;}.cls-1,.cls-3{stroke-width:15px;}.cls-2,.cls-3,.cls-4{fill:#e8f2ff;}.cls-2{stroke-width:20px;}</style></defs><path class="cls-1" d="M514.19,340.32A150,150,0,0,0,458,342.87c-14.43,3.47-45.09,11.28-69.7,39.32-22.41,25.53-27.62,53.93-29.11,66.38v91.66a74.85,74.85,0,0,0,10.22,4.6c27.4,9.94,54,1.4,67.14-4.09V453.16a42,42,0,0,1,16.86-25.9,45.24,45.24,0,0,1,9.57-5.11,64.6,64.6,0,0,1,15.45-4.21,83.26,83.26,0,0,1,12.89-.77c6.14,0,14.41,0,24.38.38"/><rect class="cls-2" x="515.72" y="315.81" width="100.09" height="128.29" rx="9.28"/><rect class="cls-2" x="685.51" y="317.34" width="65.87" height="116.94" rx="9.28"/><path class="cls-1" d="M615.81,339.47h69.7S615.81,340.32,615.81,339.47Z"/><line class="cls-1" x1="615.81" y1="416.74" x2="685.51" y2="416.74"/><path class="cls-1" d="M512.4,777.43c0,91.79-33.18,135.4-111.31,135.4s-110.3-47.18-110.3-139,104.65-197,104.65-197S512.4,685.63,512.4,777.43Z"/><line class="cls-1" x1="532.57" y1="222.11" x2="532.57" y2="315.81"/><line class="cls-1" x1="599.47" y1="222.11" x2="599.47" y2="315.81"/><rect class="cls-2" x="517.6" y="113.26" width="98.21" height="108.85" rx="9.28"/><circle class="cls-3" cx="428.37" cy="161.4" r="38.83"/><circle class="cls-3" cx="708.75" cy="158.83" r="38.83"/><line class="cls-1" x1="452.67" y1="131.11" x2="517.6" y2="131.11"/><line class="cls-1" x1="451.96" y1="192.24" x2="517.6" y2="192.24"/><line class="cls-1" x1="688.16" y1="191.97" x2="615.81" y2="191.97"/><line class="cls-1" x1="681.44" y1="130.83" x2="615.81" y2="130.83"/><path class="cls-4" d="M368.91,637c-3.43,25.35-11.24,50-18.59,74.11-5.48,17.61-11.5,35.63-18.63,52.93A183,183,0,0,1,323,782.53a82.4,82.4,0,0,1-5.94-20c-7.86-44.68,12.5-101.17,51.89-125.51Z"/></svg>