<svg id="Слой_1" data-name="Слой 1" xmlns="http://www.w3.org/2000/svg" viewBox="0 0 1000 1000"><defs><style>.cls-1{fill:none;}.cls-1,.cls-2,.cls-3,.cls-4{stroke:#2589ff;stroke-miterlimit:10;}.cls-1,.cls-2{stroke-width:15px;}.cls-2,.cls-3,.cls-4{fill:#e8f2ff;}.cls-3{stroke-width:10px;}.cls-4{stroke-width:20px;}</style></defs><path class="cls-1" d="M261.17,473.34a223.13,223.13,0,0,0,6.1,103.35,30.33,30.33,0,0,0,27.24,21.45l75.09,4.6a4,4,0,0,1,3.61,5.06L342,720.18A18,18,0,0,0,359.36,743H525.67a11.92,11.92,0,0,0,11.23-15.9L496,611.62a6.75,6.75,0,0,1,6-9l15.42-1c7.4-.38,35.23-6.85,48.94-10.51l43.49-11.9c20.42-9.12,34.81-13.91,48.69-26.52l4.78-4.34a73.65,73.65,0,0,0,24.14-54.54V473.34Z"/><path class="cls-1" d="M231.07,267l23.11,190.8a8.11,8.11,0,0,0,8.05,7.13H381.85a11.52,11.52,0,0,0,11.51-12.07L384,256.55a7,7,0,0,0-6.94-6.61H246.17A15.21,15.21,0,0,0,231.07,267Z"/><rect class="cls-1" x="393.36" y="437.68" width="303.38" height="35.66" rx="10.72"/><rect class="cls-2" x="221.28" y="213.68" width="170.81" height="36.26" rx="18.13"/><path class="cls-3" d="M788.19,717.75c0-.71,0-1.41,0-2.12,0-35.47-28-64.23-62.47-64.23s-62.46,28.76-62.46,64.23c0,.57,0,1.15,0,1.72Z"/><rect class="cls-3" x="655.72" y="717.75" width="142.04" height="25.21" rx="10.72"/><line class="cls-4" x1="725.75" y1="496.57" x2="725.75" y2="651.4"/></svg>