<svg id="Слой_1" data-name="Слой 1" xmlns="http://www.w3.org/2000/svg" viewBox="0 0 1000 1000"><defs><style>.cls-1{fill:none;}.cls-1,.cls-2,.cls-3,.cls-4,.cls-6{stroke:#2589ff;stroke-miterlimit:10;}.cls-1,.cls-2{stroke-width:20px;}.cls-2,.cls-6{fill:#e8f2ff;}.cls-3,.cls-4{fill:#fff;}.cls-3,.cls-6{stroke-width:10px;}.cls-4{stroke-width:5px;}.cls-5{fill:#2589ff;}</style></defs><path class="cls-1" d="M288.2,402.54H771.35a0,0,0,0,1,0,0v378.3a32.77,32.77,0,0,1-32.77,32.77H321a32.77,32.77,0,0,1-32.77-32.77V402.54A0,0,0,0,1,288.2,402.54Z"/><path class="cls-2" d="M321,255.22H738.58A32.77,32.77,0,0,1,771.35,288V389a0,0,0,0,1,0,0H288.2a0,0,0,0,1,0,0V288A32.77,32.77,0,0,1,321,255.22Z"/><circle class="cls-3" cx="383.45" cy="320.36" r="41.32"/><polyline class="cls-4" points="383.45 300.92 383.45 320.36 401.88 320.36"/><rect class="cls-5" x="437.69" y="189.34" width="184.17" height="62.64" rx="7.7"/><rect class="cls-5" x="500" y="113.26" width="59.54" height="93.11" rx="7.7"/><rect class="cls-3" x="413.35" y="486.28" width="232.85" height="232.85" rx="18.07"/><path class="cls-6" d="M496.13,680.91c-7.35-3.25-13.76-8.6-19.66-15.14-12.42-13.79-14.67-37.87-8.85-58.56,1.9-6.74,20.09-55.83,20.09-55.83s23.67,49.82,31.66,48.34c9.22-1.71,10.55-72.51,10.55-72.51s21.4,21.2,27.57,43.92c5.84,21.48,3.51,39.83,7.83,40.51,4.62.73,14-19.41,14-19.41s10,25.06,5.11,48.34c-2.43,11.54-5.39,22.81-14.64,32.69C545.84,698.79,501.71,683.38,496.13,680.91Z"/><rect class="cls-5" x="377.43" y="818.96" width="71.83" height="29.96" rx="7.62"/><rect class="cls-5" x="597.07" y="818.96" width="71.83" height="29.96" rx="7.62"/></svg>